<svg xmlns="http://www.w3.org/2000/svg" xmlns:xlink="http://www.w3.org/1999/xlink" width="669" height="865" viewBox="0 0 669 865"><defs><clipPath id="clip-path"><rect id="Rectangle_5669" data-name="Rectangle 5669" width="669" height="865" transform="translate(2315 -1218)" fill="#fff" stroke="#707070" stroke-width="1"></rect></clipPath></defs><g id="Mask_Group_107" data-name="Mask Group 107" transform="translate(-2315 1218)" clip-path="url(#clip-path)"><g id="Group_15384" data-name="Group 15384" transform="translate(2315 -1218.001)" opacity="0.791"><path id="Path_28451" data-name="Path 28451" d="M745.968,215.009c.181,3.333.091,6.643.193,9.964-.1-3.333-.023-6.643-.2-9.986C680.484,87.452,547.622,0,394.64,0V.2C177.523.748,0,177.387,0,394.663A391.632,391.632,0,0,0,43.358,574.272v.034c61.12,119.021,318.75,412.958,352.677,451.453C333.452,923.276,274.043,782.207,235.957,645.276c-18.148-65.462-42.78-170.948-39.322-252.042.578-81.966,51.19-152.2,122.773-181.74l.045-.011a196.747,196.747,0,0,1,75.2-14.872V196.6c109.08.2,198.017,86.115,198.017,195.195,0,82.567-50.816,156.326-122.853,185.99,5.044-.691,10.02-2.063,15.042-3.049-5.022.986-10,2.38-15.042,3.072a196.988,196.988,0,0,1-192.792-24.224c5.135,24.031,11.369,49.184,18.556,75.153,25.267,90.887,60.236,183.338,99.071,264.114v.2l3.6,7.425.147.306v-.011l.011.023c12.945,26.468,26.23,51.542,39.8,74.87,102.63-114.17,351.09-408.356,351.09-581a392.447,392.447,0,0,0-43.335-179.654" transform="translate(0 0.001)" fill="#fff"></path></g></g></svg>