<svg xmlns="http://www.w3.org/2000/svg" xmlns:xlink="http://www.w3.org/1999/xlink" width="200" height="200" viewBox="0 0 200 200"><defs><clipPath id="clip-path"><rect id="Rect&#xE1;ngulo_4526" data-name="Rect&#xE1;ngulo 4526" width="200" height="200" transform="translate(-11412 5649)" fill="#fff" stroke="#707070" stroke-width="1"></rect></clipPath></defs><g id="Enmascarar_grupo_40" data-name="Enmascarar grupo 40" transform="translate(11412 -5649)" clip-path="url(#clip-path)"><g id="Grupo_14262" data-name="Grupo 14262" transform="translate(-11470.112 5583.037)"><path id="Trazado_28366" data-name="Trazado 28366" d="M0,0H70.373V58.7H0Z" transform="translate(140.113 189.421) rotate(-45)" fill="#fcd4a9" fill-rule="evenodd"></path><path id="Trazado_28367" data-name="Trazado 28367" d="M280.187,324.6l62.264-62.264a2.41,2.41,0,0,1,3.4,0L364.3,280.786a2.41,2.41,0,0,1,0,3.4l-62.264,62.264a2.41,2.41,0,0,1-3.4,0L280.187,328A2.41,2.41,0,0,1,280.187,324.6Z" transform="translate(-109.887 -92.517)" fill="#323133" fill-rule="evenodd"></path><path id="Trazado_28368" data-name="Trazado 28368" d="M245.676,145.99a10.162,10.162,0,0,0-14.357,0l4.863-4.876a10.166,10.166,0,1,0-14.357-14.4l3.358-3.367a10.166,10.166,0,0,0-14.357-14.4l-3.358,3.367a10.166,10.166,0,1,0-14.357-14.4L94,197.307l48.469,46.6,39.808-39.917a15.107,15.107,0,0,1,9.345-4.517l11.543-1.312a15.107,15.107,0,0,0,9.345-4.517l33.165-33.256a10.229,10.229,0,0,0,0-14.4Z" transform="translate(-15.822 -7.934)" fill="#f0b16e" fill-rule="evenodd"></path><path id="Trazado_28369" data-name="Trazado 28369" d="M82.66,262.337,144.924,324.6a2.41,2.41,0,0,1,0,3.4l-18.449,18.449a2.41,2.41,0,0,1-3.4,0L60.813,284.184a2.41,2.41,0,0,1,0-3.4l18.449-18.449a2.41,2.41,0,0,1,3.4,0Z" transform="translate(0 -92.517)" fill="#e88129" fill-rule="evenodd"></path><g id="Grupo_14238" data-name="Grupo 14238" transform="translate(81.743 77.963)"><path id="Trazado_28370" data-name="Trazado 28370" d="M103.79,190.213a10.673,10.673,0,0,1,15.05,0L133.4,204.777a10.642,10.642,0,0,1-15.05,15.05L103.79,205.263a10.673,10.673,0,0,1,0-15.05Z" transform="translate(-100.686 -128.921)" fill="#fcd4a9" fill-rule="evenodd"></path><path id="Trazado_28371" data-name="Trazado 28371" d="M122.458,152.419a10.672,10.672,0,0,1,15.05,0l19.662,19.662a10.642,10.642,0,1,1-15.05,15.05l-19.662-19.662a10.673,10.673,0,0,1,0-15.05Z" transform="translate(-109.402 -111.276)" fill="#fcd4a9" fill-rule="evenodd"></path><path id="Trazado_28372" data-name="Trazado 28372" d="M144.085,117.587a10.673,10.673,0,0,1,15.05,0l23.183,23.183a10.642,10.642,0,0,1-15.05,15.05l-23.183-23.183a10.673,10.673,0,0,1,0-15.05Z" transform="translate(-119.499 -95.013)" fill="#fcd4a9" fill-rule="evenodd"></path><path id="Trazado_28373" data-name="Trazado 28373" d="M178.919,95.96a10.673,10.673,0,0,1,15.05,0l19.662,19.662a10.642,10.642,0,0,1-15.05,15.05L178.919,111.01a10.673,10.673,0,0,1,0-15.05Z" transform="translate(-135.762 -84.916)" fill="#fcd4a9" fill-rule="evenodd"></path><path id="Trazado_28374" data-name="Trazado 28374" d="M218.236,109.225l-7.525-7.525,20.633-20.633a10.673,10.673,0,0,1,15.05,0l7.525,7.525-20.633,20.633A10.673,10.673,0,0,1,218.236,109.225Z" transform="translate(-152.055 -77.963)" fill="#fcd4a9" fill-rule="evenodd"></path></g></g></g></svg>