<svg xmlns="http://www.w3.org/2000/svg" xmlns:xlink="http://www.w3.org/1999/xlink" width="150" height="150" viewBox="0 0 150 150"><defs><clipPath id="clip-path"><rect id="Rect&#xE1;ngulo_4528" data-name="Rect&#xE1;ngulo 4528" width="150" height="150" transform="translate(-11191 7226)" fill="#fff" stroke="#707070" stroke-width="1"></rect></clipPath></defs><g id="Enmascarar_grupo_42" data-name="Enmascarar grupo 42" transform="translate(11191 -7226)" clip-path="url(#clip-path)"><g id="Layer_x0020_1" transform="translate(-11208 7238.894)"><path id="Trazado_28397" data-name="Trazado 28397" d="M268,180h3.642v1.7a1.66,1.66,0,0,1-1.7,1.7A1.877,1.877,0,0,1,268,181.7Z" transform="translate(-172.636 -136.211)" fill="#69b743" fill-rule="evenodd"></path><path id="Trazado_28398" data-name="Trazado 28398" d="M243.229,36.5a.892.892,0,0,1-.728-.243c-.243,0-.243,0-.243-.243-5.828-3.885-8.985-8.5-9.47-14.084-.971-11.17,8.742-20.883,9.227-21.369a1.847,1.847,0,0,1,2.428,0c.486.486,10.2,10.2,9.227,21.369-.486,5.585-3.642,10.441-9.47,14.084a.238.238,0,0,1-.243.243A.892.892,0,0,1,243.229,36.5Z" transform="translate(-145.922 0)" fill="#7ed63f" fill-rule="evenodd"></path><g id="Grupo_14242" data-name="Grupo 14242" transform="translate(90.69 10.279)"><path id="Trazado_28399" data-name="Trazado 28399" d="M255.367,74.156a1.335,1.335,0,0,1-1.214-.728L249.3,69.3a1.814,1.814,0,0,1,2.428-2.671L256.581,71a1.617,1.617,0,0,1,0,2.428A1.657,1.657,0,0,1,255.367,74.156Z" transform="translate(-248.75 -60.315)" fill="#69b743" fill-rule="evenodd"></path><path id="Trazado_28400" data-name="Trazado 28400" d="M269.943,78.909A1.877,1.877,0,0,1,268,77.21V43.7a1.877,1.877,0,0,1,1.943-1.7,1.66,1.66,0,0,1,1.7,1.7V77.21A1.66,1.66,0,0,1,269.943,78.909Z" transform="translate(-263.326 -42)" fill="#69b743" fill-rule="evenodd"></path><path id="Trazado_28401" data-name="Trazado 28401" d="M270.085,91.127c-.486,0-.971,0-1.214-.486a1.622,1.622,0,0,1-.243-2.428l4.857-5.342a1.812,1.812,0,1,1,2.671,2.428L271.3,90.642A2.564,2.564,0,0,1,270.085,91.127Z" transform="translate(-263.468 -72.43)" fill="#69b743" fill-rule="evenodd"></path></g><path id="Trazado_28402" data-name="Trazado 28402" d="M188.408,241.678a2.6,2.6,0,0,1-1.457-.486c-13.6,3.885-32.3-8.5-37.638-12.384a1.582,1.582,0,0,1-2.185-.486A33.5,33.5,0,0,1,143,212.3a32.3,32.3,0,1,1,45.894,29.139C188.651,241.678,188.651,241.678,188.408,241.678Z" transform="translate(-77.989 -136.211)" fill="#2e9cf5" fill-rule="evenodd"></path><path id="Trazado_28403" data-name="Trazado 28403" d="M157,214.141c.728-1.214,1.214-2.185,1.943-3.4h.243c0-.243.243-.243.243-.486.486-.486.728-.971.971-1.214V208.8c.243,0,.243-.243.486-.486l.486-.486c.243-.243.486-.486.486-.728.243-.243.486-.243.486-.486h.243a.522.522,0,0,1,.486-.486c.243-.243.243-.486.486-.728a.522.522,0,0,0,.486-.486c.243-.243.486-.243.728-.486l.243-.243L167.927,202a29.5,29.5,0,0,0,8.742.971h.486c2.914,0,5.1.728,6.313,2.428a7.128,7.128,0,0,1,.728,5.585c-1.214,3.4-7.528,4.614-9.47,4.857-1.214.243-1.214.486-1.214.486-.243.728,1.214,2.185,1.943,2.428,4.614.728,5.828,2.185,6.071,4.128a7.832,7.832,0,0,1,3.642,6.071,4.326,4.326,0,0,1-2.428,3.885c-.971.486-1.457.971-1.457,1.7-.243.728.728,1.943.728,2.185a1.784,1.784,0,0,1,.486,1.457c-1.214,3.885-2.185,6.071-3.885,6.071l-.243.243c-1.943,0-2.914-2.428-4.128-5.585-.971-2.428-2.428-6.071-3.885-6.556-4.857-1.7-3.885-5.1-3.642-7.042,0-.486.243-1.214.243-1.457h-.243C161.857,221.669,158.7,217.055,157,214.141Z" transform="translate(-88.589 -152.869)" fill="#7ed63f" fill-rule="evenodd"></path><path id="Trazado_28404" data-name="Trazado 28404" d="M312.984,211a12.727,12.727,0,0,1,2.671,2.428l.486.486c.243.243.486.486.486.728a.522.522,0,0,1,.486.486l.486.486v.243a.522.522,0,0,1,.486.486c.243.243.486.486.486.728l.486.486c.243.243.243.486.486.728,0,.243.243.486.243.728h.243c0,.243.243.243.243.486v.243c.243,0,.243.243.486.486,0,.243.243.486.243.728.243.243.243.486.486.728a.892.892,0,0,0,.243.728c0,.243.243.486.243.728a.892.892,0,0,1,.243.728h.243a183297.822,183297.822,0,0,0,.971,2.914v.728h.243v.971a.892.892,0,0,1,.243.728.892.892,0,0,0,.243.728v.728a.892.892,0,0,0,.243.728v1.7a1.46,1.46,0,0,0,.243.971v2.671a10.517,10.517,0,0,1-.243,1.214v1.7c0,.243-.243.486-.243.728v.486c-.243,1.214-.486,2.185-.728,3.157-1.7.243-4.128.486-4.857.728-.971.243-4.371,1.7-5.585,2.185l-.971,3.157a1.9,1.9,0,0,1-.971.971l-5.828,1.943a.752.752,0,0,1-.486.243.892.892,0,0,1-.728-.243l-3.642-1.7c-.243,0-.486-.486-.728-.728l-1.943-6.313a1.606,1.606,0,0,1,.243-1.457L304,236.5a1.262,1.262,0,0,1,.971-.486l3.885-.486.971-1.7-1.214-4.128a.455.455,0,0,1,0-.728l1.214-5.585-1.943-4.857a3.08,3.08,0,0,1,.243-1.457Z" transform="translate(-195.037 -159.683)" fill="#7ed63f" fill-rule="evenodd"></path><path id="Trazado_28405" data-name="Trazado 28405" d="M270.085,58.533a1.855,1.855,0,0,1-1.214-.486,1.622,1.622,0,0,1-.243-2.428l3.4-4.128a1.661,1.661,0,0,1,2.428-.486,1.9,1.9,0,0,1,.243,2.671L271.3,57.8A1.335,1.335,0,0,1,270.085,58.533Z" transform="translate(-172.779 -38.298)" fill="#69b743" fill-rule="evenodd"></path><path id="Trazado_28406" data-name="Trazado 28406" d="M111.173,393.186a1.793,1.793,0,0,1-1.457-1.214c-.243-.971,0-1.943.728-2.185V368.661a3.352,3.352,0,0,1-.728-.971c-.243-.971,0-1.943.971-2.185,1.943-.971,3.642-1.943,5.342-2.671,6.8-3.157,11.656-5.585,20.4-2.671l17,5.342a6.128,6.128,0,0,1,4.371,7.042,1.46,1.46,0,0,0-.243.971c6.556-1.457,12.87-5.1,20.883-9.956q3.278-2.185,7.285-4.371a7.463,7.463,0,0,1,7.77-.243,9.212,9.212,0,0,1,4.128,7.528,7.655,7.655,0,0,1-3.885,6.556c-39.823,22.826-51.236,20.64-61.435,18.7-5.828-1.214-10.927-2.185-20.64,1.457Z" transform="translate(-52.718 -270.964)" fill="#fed8a7" fill-rule="evenodd"></path><path id="Trazado_28407" data-name="Trazado 28407" d="M56.269,410.539H44.128A4.093,4.093,0,0,1,40,406.411V382.128A4.255,4.255,0,0,1,44.128,378H56.269a4.255,4.255,0,0,1,4.128,4.128v24.283A4.093,4.093,0,0,1,56.269,410.539Z" transform="translate(0 -286.131)" fill="#4d4d4d" fill-rule="evenodd"></path><path id="Trazado_28408" data-name="Trazado 28408" d="M66.1,410.956A5.085,5.085,0,0,1,61,406.1a5.3,5.3,0,0,1,5.1-5.1,5.085,5.085,0,0,1,4.857,5.1A4.871,4.871,0,0,1,66.1,410.956Z" transform="translate(-15.901 -303.546)" fill="#fff" fill-rule="evenodd"></path></g></g></svg>