<svg xmlns="http://www.w3.org/2000/svg" xmlns:xlink="http://www.w3.org/1999/xlink" width="200" height="200" viewBox="0 0 200 200"><defs><clipPath id="clip-path"><rect id="Rect&#xE1;ngulo_4525" data-name="Rect&#xE1;ngulo 4525" width="200" height="200" transform="translate(-11983 5701)" fill="#fff" stroke="#707070" stroke-width="1"></rect></clipPath></defs><g id="Enmascarar_grupo_39" data-name="Enmascarar grupo 39" transform="translate(11983 -5701)" clip-path="url(#clip-path)"><g id="Grupo_14260" data-name="Grupo 14260" transform="translate(-11979 5701.5)"><circle id="Elipse_482" data-name="Elipse 482" cx="92.154" cy="92.154" r="92.154" transform="translate(0 9.654)" fill="#323133"></circle><path id="Trazado_28330" data-name="Trazado 28330" d="M21.47,159.831H8.476A91.928,91.928,0,0,0,0,198.5q0,2.459.129,4.888H21.47Z" transform="translate(0 -96.824)" fill="#445ea0"></path><path id="Trazado_28331" data-name="Trazado 28331" d="M401.978,338.75h-8.1v30.462h8.1a3.778,3.778,0,0,0,3.767-3.767V342.517A3.778,3.778,0,0,0,401.978,338.75Z" transform="translate(-245.52 -208.35)" fill="#293d7c"></path><path id="Trazado_28332" data-name="Trazado 28332" d="M281.707,304.22v33.294l31.163,18.593V285.626Z" transform="translate(-175.598 -175.236)" fill="#eef6ff"></path><path id="Trazado_28333" data-name="Trazado 28333" d="M375.283,349.088a1.889,1.889,0,0,1-1.883,1.883h-8.076a1.889,1.889,0,0,1-1.883-1.883v-82.4a1.889,1.889,0,0,1,1.883-1.883H373.4a1.889,1.889,0,0,1,1.883,1.883Z" transform="translate(-226.546 -162.259)" fill="#e88129"></path><path id="Trazado_28334" data-name="Trazado 28334" d="M369.91,349.088v-82.4a1.889,1.889,0,0,1,1.883-1.883h-6.47a1.889,1.889,0,0,0-1.883,1.883v82.4a1.889,1.889,0,0,0,1.883,1.883h6.47A1.889,1.889,0,0,1,369.91,349.088Z" transform="translate(-226.546 -162.259)" fill="#e85f24"></path><path id="Trazado_28335" data-name="Trazado 28335" d="M173.352,342.151H164.62a1.889,1.889,0,0,0-1.883,1.883v24.132a1.889,1.889,0,0,0,1.883,1.883h8.731Z" transform="translate(-101.44 -210.47)" fill="#eef6ff"></path><path id="Trazado_28336" data-name="Trazado 28336" d="M168.2,368.167V344.035a1.889,1.889,0,0,1,1.883-1.883H164.62a1.889,1.889,0,0,0-1.883,1.883v24.132a1.889,1.889,0,0,0,1.883,1.883h5.465A1.889,1.889,0,0,1,168.2,368.167Z" transform="translate(-101.44 -210.471)" fill="#d9eafc"></path><path id="Trazado_28337" data-name="Trazado 28337" d="M224.868,365.047a1.889,1.889,0,0,1-1.883,1.883H191.8a1.889,1.889,0,0,1-1.883-1.883V331.389a1.889,1.889,0,0,1,1.883-1.883h31.184a1.889,1.889,0,0,1,1.883,1.883Z" transform="translate(-118.383 -202.588)" fill="#e88129"></path><path id="Trazado_28338" data-name="Trazado 28338" d="M197.392,365.047V331.389a1.889,1.889,0,0,1,1.883-1.883H191.8a1.889,1.889,0,0,0-1.883,1.883v33.657a1.889,1.889,0,0,0,1.883,1.883h7.474A1.889,1.889,0,0,1,197.392,365.047Z" transform="translate(-118.383 -202.588)" fill="#e85f24"></path><path id="Trazado_28339" data-name="Trazado 28339" d="M393.238,82.024a1.889,1.889,0,0,0-1.883-1.883h-51.4a1.889,1.889,0,0,0-1.883,1.883v35.766a1.889,1.889,0,0,0,1.883,1.883h15.514a4.248,4.248,0,0,1,3.011,1.509l6.045,8.086a1.333,1.333,0,0,0,2.255,0l6.045-8.086a4.248,4.248,0,0,1,3.011-1.509h15.514a1.889,1.889,0,0,0,1.883-1.883V82.024Z" transform="translate(-210.735 -47.15)" fill="#ddd"></path><path id="Trazado_28340" data-name="Trazado 28340" d="M345.549,117.791V82.024a1.889,1.889,0,0,1,1.883-1.883h-7.474a1.889,1.889,0,0,0-1.883,1.883v35.766a1.889,1.889,0,0,0,1.883,1.883h7.474A1.889,1.889,0,0,1,345.549,117.791Z" transform="translate(-210.735 -47.15)" fill="#9b9b9b"></path><g id="Grupo_14234" data-name="Grupo 14234" transform="translate(135.96 41.315)"><path id="Trazado_28341" data-name="Trazado 28341" d="M396.058,107.89H363.784a2.825,2.825,0,0,1,0-5.65h32.274a2.825,2.825,0,0,1,0,5.65Z" transform="translate(-360.959 -102.24)" fill="#fff"></path><path id="Trazado_28342" data-name="Trazado 28342" d="M396.058,131.142H363.784a2.825,2.825,0,0,1,0-5.65h32.274a2.825,2.825,0,0,1,0,5.65Z" transform="translate(-360.959 -116.734)" fill="#fff"></path><path id="Trazado_28343" data-name="Trazado 28343" d="M379.985,154.393h-16.2a2.825,2.825,0,1,1,0-5.65h16.2a2.825,2.825,0,1,1,0,5.65Z" transform="translate(-360.959 -131.227)" fill="#fff"></path></g><circle id="Elipse_483" data-name="Elipse 483" cx="20.945" cy="20.945" r="20.945" transform="translate(80.005 4.502)" fill="#e88129"></circle><path id="Trazado_28344" data-name="Trazado 28344" d="M219.875,25.445A20.946,20.946,0,0,1,237.083,4.839a20.945,20.945,0,1,0,0,41.211A20.946,20.946,0,0,1,219.875,25.445Z" transform="translate(-132.397 0)" fill="#e85f24"></path><path id="Trazado_28345" data-name="Trazado 28345" d="M246.981,55.567a1.263,1.263,0,0,1-.9-.376l-9.894-9.977a6.42,6.42,0,0,1,0-9.019,6.288,6.288,0,0,1,8.944,0l1.887,1.9,1.888-1.9a6.287,6.287,0,0,1,8.944,0,6.416,6.416,0,0,1,0,9.019l-9.971,9.98A1.258,1.258,0,0,1,246.981,55.567Z" transform="translate(-146.07 -18.592)" fill="#fff"></path><path id="Trazado_28346" data-name="Trazado 28346" d="M59.509,338.758a1.067,1.067,0,0,1-.76-.318L50.4,330.019a5.42,5.42,0,0,1,0-7.613,5.308,5.308,0,0,1,7.549,0l1.593,1.606,1.594-1.606a5.308,5.308,0,0,1,7.549,0,5.415,5.415,0,0,1,0,7.613l-8.417,8.424A1.061,1.061,0,0,1,59.509,338.758Z" transform="translate(-30.441 -197.18)" fill="#e88129"></path><path id="Trazado_28347" data-name="Trazado 28347" d="M54.607,328.261a5.408,5.408,0,0,1-.174-7.419c-.087,0-.173-.013-.261-.013a5.278,5.278,0,0,0-3.775,1.576,5.42,5.42,0,0,0,0,7.613l8.351,8.421a1.068,1.068,0,0,0,1.517,0l2.228-2.23Z" transform="translate(-30.441 -197.179)" fill="#e85f24"></path><path id="Trazado_28348" data-name="Trazado 28348" d="M142.969,140.292v-5.2a5.279,5.279,0,0,1,5.273-5.273h1.219a.377.377,0,1,0,0-.753,5.279,5.279,0,0,1-5.273-5.273v-5.2a5.279,5.279,0,0,1,5.273-5.273.377.377,0,1,0,0-.753,5.279,5.279,0,0,1-5.273-5.273v-5.2a5.279,5.279,0,0,1,5.273-5.273.377.377,0,1,0,0-.753h-2.327a5.279,5.279,0,0,1-5.273-5.273v-5.2a5.279,5.279,0,0,1,4.324-5.183V60.17a5.667,5.667,0,0,0-5.65-5.65h-8.788a6.677,6.677,0,0,0-6.413,5.6l-3.54,25.974c-.418,3.067-2.634,5.578-4.931,5.6v48.967h26.125C142.979,140.535,142.969,140.415,142.969,140.292Z" transform="translate(-72.844 -31.179)" fill="#ffe2b8"></path><path id="Trazado_28349" data-name="Trazado 28349" d="M140.535,54.52h-8.788a6.677,6.677,0,0,0-6.413,5.6l-3.54,25.974c-.418,3.067-2.634,5.578-4.931,5.6v7.476h7.448c2.306,0,4.537-2.519,4.957-5.6l3.54-25.974a6.677,6.677,0,0,1,6.413-5.6h6.964V60.17A5.666,5.666,0,0,0,140.535,54.52Z" transform="translate(-72.845 -31.179)" fill="#ffc987"></path><path id="Trazado_28350" data-name="Trazado 28350" d="M190.822,269.932a5.667,5.667,0,0,1-5.65-5.65v-5.2a5.667,5.667,0,0,1,5.65-5.65h30.642a5.667,5.667,0,0,1,5.65,5.65v5.2a5.667,5.667,0,0,1-5.65,5.65Z" transform="translate(-115.424 -155.169)" fill="#ffe2b8"></path><path id="Trazado_28351" data-name="Trazado 28351" d="M57.883,197.47A1.889,1.889,0,0,1,56,195.587V137.713a1.889,1.889,0,0,1,1.883-1.883H77.418a1.889,1.889,0,0,1,1.883,1.883v57.873a1.889,1.889,0,0,1-1.883,1.883H57.883Z" transform="translate(-34.907 -81.863)" fill="#293d7c"></path><path id="Trazado_28352" data-name="Trazado 28352" d="M63.474,195.587V137.713a1.889,1.889,0,0,1,1.883-1.883H57.883A1.889,1.889,0,0,0,56,137.713v57.873a1.889,1.889,0,0,0,1.883,1.883h7.474A1.888,1.888,0,0,1,63.474,195.587Z" transform="translate(-34.907 -81.863)" fill="#1a2b63"></path><circle id="Elipse_484" data-name="Elipse 484" cx="5.042" cy="5.042" r="5.042" transform="translate(27.701 58.15)" fill="#aec1ed"></circle><g id="Grupo_14235" data-name="Grupo 14235" transform="translate(68.639 48.766)"><path id="Trazado_28353" data-name="Trazado 28353" d="M187.88,138.521a5.667,5.667,0,0,1-5.65-5.65v-5.2a5.667,5.667,0,0,1,5.65-5.65h31.75a5.667,5.667,0,0,1,5.65,5.65v5.2a5.667,5.667,0,0,1-5.65,5.65Z" transform="translate(-182.23 -122.021)" fill="#ffe2b8"></path><path id="Trazado_28354" data-name="Trazado 28354" d="M194.058,182.326a5.667,5.667,0,0,1-5.65-5.65v-5.2a5.667,5.667,0,0,1,5.65-5.65h30.8a5.667,5.667,0,0,1,5.65,5.65v5.2a5.667,5.667,0,0,1-5.65,5.65Z" transform="translate(-186.081 -149.326)" fill="#ffe2b8"></path><path id="Trazado_28355" data-name="Trazado 28355" d="M194.058,226.13a5.667,5.667,0,0,1-5.65-5.65v-5.2a5.667,5.667,0,0,1,5.65-5.65h30.8a5.667,5.667,0,0,1,5.65,5.65v5.2a5.667,5.667,0,0,1-5.65,5.65Z" transform="translate(-186.081 -176.632)" fill="#ffe2b8"></path></g><g id="Grupo_14236" data-name="Grupo 14236" transform="translate(68.639 48.766)"><path id="Trazado_28356" data-name="Trazado 28356" d="M196.638,264.117a5.667,5.667,0,0,1-5.65-5.65v-5.033h-.166a5.667,5.667,0,0,0-5.65,5.65v5.2a5.667,5.667,0,0,0,5.65,5.65h30.642a5.667,5.667,0,0,0,5.65-5.65v-.166H196.638Z" transform="translate(-184.064 -203.936)" fill="#ffc987"></path><path id="Trazado_28357" data-name="Trazado 28357" d="M193.7,132.705a5.667,5.667,0,0,1-5.65-5.65v-5.033h-.166a5.667,5.667,0,0,0-5.65,5.65v5.2a5.667,5.667,0,0,0,5.65,5.65h31.75a5.667,5.667,0,0,0,5.65-5.65v-.166H193.7Z" transform="translate(-182.23 -122.022)" fill="#ffc987"></path><path id="Trazado_28358" data-name="Trazado 28358" d="M199.875,176.509a5.667,5.667,0,0,1-5.65-5.65v-5.033h-.166a5.667,5.667,0,0,0-5.65,5.65v5.2a5.667,5.667,0,0,0,5.65,5.65h30.8a5.667,5.667,0,0,0,5.65-5.65v-.166Z" transform="translate(-186.082 -149.327)" fill="#ffc987"></path><path id="Trazado_28359" data-name="Trazado 28359" d="M199.875,220.314a5.667,5.667,0,0,1-5.65-5.65v-5.033h-.166a5.667,5.667,0,0,0-5.65,5.65v5.2a5.667,5.667,0,0,0,5.65,5.65h30.8a5.667,5.667,0,0,0,5.65-5.65v-.166H199.875Z" transform="translate(-186.082 -176.632)" fill="#ffc987"></path></g><path id="Trazado_28360" data-name="Trazado 28360" d="M64.983,389.646h-33.7a.752.752,0,0,0-.749.752v21.62a.752.752,0,0,0,.749.752h33.7a.752.752,0,0,0,.749-.752V390.4A.752.752,0,0,0,64.983,389.646Z" transform="translate(-19.036 -240.076)" fill="#ffaf10"></path><path id="Trazado_28361" data-name="Trazado 28361" d="M38.014,412.283V395.816l-7.293-5.637a.754.754,0,0,1,.113-.109.749.749,0,0,0-.293.592v21.62a.752.752,0,0,0,.749.752h7.474A.752.752,0,0,1,38.014,412.283Z" transform="translate(-19.037 -240.34)" fill="#ef9614"></path><path id="Trazado_28362" data-name="Trazado 28362" d="M65.282,389.646h-33.7a.743.743,0,0,0-.568.269l16.823,13a1.025,1.025,0,0,0,1.187,0l16.822-13A.741.741,0,0,0,65.282,389.646Z" transform="translate(-19.335 -240.076)" fill="#ffd00d"></path><path id="Trazado_28363" data-name="Trazado 28363" d="M453.011,232.153h-33.7a.752.752,0,0,0-.749.752v21.62a.753.753,0,0,0,.749.752h33.7a.752.752,0,0,0,.749-.752v-21.62A.753.753,0,0,0,453.011,232.153Z" transform="translate(-260.908 -141.904)" fill="#ffaf10"></path><path id="Trazado_28364" data-name="Trazado 28364" d="M426.041,254.791V238.324l-7.293-5.637a.753.753,0,0,1,.113-.109.749.749,0,0,0-.293.592v21.62a.753.753,0,0,0,.749.752h7.474A.752.752,0,0,1,426.041,254.791Z" transform="translate(-260.908 -142.169)" fill="#ef9614"></path><path id="Trazado_28365" data-name="Trazado 28365" d="M453.31,232.153h-33.7a.743.743,0,0,0-.568.269l16.823,13a1.025,1.025,0,0,0,1.187,0l16.822-13A.743.743,0,0,0,453.31,232.153Z" transform="translate(-261.207 -141.904)" fill="#ffd00d"></path></g></g></svg>