<svg xmlns="http://www.w3.org/2000/svg" xmlns:xlink="http://www.w3.org/1999/xlink" width="200" height="200" viewBox="0 0 200 200"><defs><clipPath id="clip-path"><rect id="Rect&#xE1;ngulo_4524" data-name="Rect&#xE1;ngulo 4524" width="200" height="200" transform="translate(-11133 6011)" fill="#fff" stroke="#707070" stroke-width="1"></rect></clipPath></defs><g id="Enmascarar_grupo_36" data-name="Enmascarar grupo 36" transform="translate(11133 -6011)" clip-path="url(#clip-path)"><g id="Grupo_14263" data-name="Grupo 14263" transform="translate(-11142.54 6021)"><g id="Grupo_14229" data-name="Grupo 14229" transform="translate(77.863 98.175)"><path id="Trazado_28319" data-name="Trazado 28319" d="M230.062,309.774V317.9a5.3,5.3,0,0,1-5.3,5.3H171.629a5.3,5.3,0,0,1-5.3-5.3v-8.122a31.866,31.866,0,0,1,63.732,0Z" transform="translate(-166.33 -277.91)" fill="#fabe2c"></path></g><g id="Grupo_14230" data-name="Grupo 14230" transform="translate(87.38 57.424)"><circle id="Elipse_481" data-name="Elipse 481" cx="18.315" cy="18.315" r="18.315" transform="translate(0 35.421) rotate(-75.117)" fill="#d58678"></circle></g><path id="Trazado_28320" data-name="Trazado 28320" d="M274.845,192.535A18.335,18.335,0,0,1,256.53,210.85V174.22A18.335,18.335,0,0,1,274.845,192.535Z" transform="translate(-146.803 -112.675)" fill="#b95d4c"></path><path id="Trazado_28321" data-name="Trazado 28321" d="M288.4,309.774V317.9a5.3,5.3,0,0,1-5.3,5.3H256.53V277.91A31.9,31.9,0,0,1,288.4,309.774Z" transform="translate(-146.803 -179.735)" fill="#ff9100"></path><g id="Grupo_14231" data-name="Grupo 14231" transform="translate(42.791 131.219)"><path id="Trazado_28322" data-name="Trazado 28322" d="M200.926,376.417v39.721a5.143,5.143,0,0,1-5.3,4.963H72.349a5.143,5.143,0,0,1-5.3-4.963V376.417a5.143,5.143,0,0,1,5.3-4.967H195.627A5.143,5.143,0,0,1,200.926,376.417Z" transform="translate(-67.05 -371.45)" fill="#636363"></path></g><path id="Trazado_28323" data-name="Trazado 28323" d="M323.47,376.417v39.721a5.143,5.143,0,0,1-5.3,4.963H256.53V371.45h61.641A5.143,5.143,0,0,1,323.47,376.417Z" transform="translate(-146.803 -240.231)" fill="#323133"></path><g id="Grupo_14232" data-name="Grupo 14232" transform="translate(63.987 149.077)"><path id="Trazado_28324" data-name="Trazado 28324" d="M218.534,427.3a5.3,5.3,0,0,1-5.3,5.3H132.349a5.3,5.3,0,1,1,0-10.6h80.887A5.3,5.3,0,0,1,218.534,427.3Z" transform="translate(-127.05 -422)" fill="#f0f7ff"></path></g><path id="Trazado_28325" data-name="Trazado 28325" d="M302.274,427.3a5.3,5.3,0,0,1-5.3,5.3H256.53V422h40.445A5.3,5.3,0,0,1,302.274,427.3Z" transform="translate(-146.803 -272.923)" fill="#dfe7f4"></path><path id="Trazado_28326" data-name="Trazado 28326" d="M189.54,197.388a5.3,5.3,0,0,1-5.3,5.3H34.839a5.3,5.3,0,0,1,0-10.6h7.952v-87.51a5.3,5.3,0,0,1,10.6,0v87.51h112.68v-87.51a5.3,5.3,0,0,1,10.6,0v87.51h7.574A5.3,5.3,0,0,1,189.54,197.388Z" transform="translate(0 -64.208)" fill="#47568c"></path><path id="Trazado_28327" data-name="Trazado 28327" d="M336.343,197.388a5.3,5.3,0,0,1-5.3,5.3H256.53v-10.6h56.342v-87.51a5.3,5.3,0,0,1,10.6,0v87.51h7.574a5.3,5.3,0,0,1,5.3,5.3Z" transform="translate(-146.803 -64.208)" fill="#29376d"></path><path id="Trazado_28328" data-name="Trazado 28328" d="M195.226,5.3V28.508A18.984,18.984,0,0,1,162.532,41.65a18.958,18.958,0,0,1-27.4,0,18.954,18.954,0,0,1-27.4,0,18.958,18.958,0,0,1-27.4,0,18.986,18.986,0,0,1-32.7-13.141V5.3a5.3,5.3,0,0,1,5.3-5.3H189.927a5.3,5.3,0,0,1,5.3,5.3Z" transform="translate(-11.706)" fill="#e85f24"></path><path id="Trazado_28329" data-name="Trazado 28329" d="M330.323,5.3V28.508A18.984,18.984,0,0,1,297.629,41.65a18.958,18.958,0,0,1-27.4,0,18.941,18.941,0,0,1-13.7,5.854V0h68.494A5.3,5.3,0,0,1,330.323,5.3Z" transform="translate(-146.803)" fill="#e88129"></path></g></g></svg>