<svg xmlns="http://www.w3.org/2000/svg" xmlns:xlink="http://www.w3.org/1999/xlink" width="200" height="200" viewBox="0 0 200 200"><defs><clipPath id="clip-path"><rect id="Rect&#xE1;ngulo_4522" data-name="Rect&#xE1;ngulo 4522" width="200" height="200" transform="translate(-11973 5980)" fill="#fff" stroke="#707070" stroke-width="1"></rect></clipPath></defs><g id="Enmascarar_grupo_38" data-name="Enmascarar grupo 38" transform="translate(11973 -5980)" clip-path="url(#clip-path)"><g id="Grupo_14259" data-name="Grupo 14259" transform="translate(-11971 5982)"><path id="Trazado_28278" data-name="Trazado 28278" d="M199.227,456.453A17.246,17.246,0,0,1,182,439.227V427.742A5.74,5.74,0,0,1,187.742,422h22.969a5.74,5.74,0,0,1,5.742,5.742v11.484A17.246,17.246,0,0,1,199.227,456.453Zm0,0" transform="translate(-112.328 -260.453)" fill="#3e5959"></path><path id="Trazado_28279" data-name="Trazado 28279" d="M409.227,456.453A17.246,17.246,0,0,1,392,439.227V427.742A5.74,5.74,0,0,1,397.742,422h22.969a5.74,5.74,0,0,1,5.742,5.742v11.484A17.246,17.246,0,0,1,409.227,456.453Zm0,0" transform="translate(-241.938 -260.453)" fill="#293939"></path><path id="Trazado_28280" data-name="Trazado 28280" d="M300.359,261.453H197l8.844-26.644A11.484,11.484,0,0,1,216.754,227h63.853a11.485,11.485,0,0,1,10.91,7.809Zm0,0" transform="translate(-121.586 -140.102)" fill="#a8ebfa"></path><path id="Trazado_28281" data-name="Trazado 28281" d="M296.476,250.358l-8.842-26.529A17.028,17.028,0,0,0,271.327,212H207.472a17.028,17.028,0,0,0-16.307,11.828l-8.842,26.529a5.535,5.535,0,0,0,.688,5.168,5.988,5.988,0,0,0,4.709,2.412H291.079a5.988,5.988,0,0,0,4.709-2.412A5.535,5.535,0,0,0,296.476,250.358Zm-100.832-3.9,6.432-19.064a5.692,5.692,0,0,1,5.4-3.9h63.855a5.692,5.692,0,0,1,5.4,3.9l6.432,19.064Zm0,0" transform="translate(-112.305 -130.844)" fill="#e88129"></path><path id="Trazado_28282" data-name="Trazado 28282" d="M383.68,261.453H332V227h31.927a11.483,11.483,0,0,1,10.909,7.809Zm0,0" transform="translate(-204.906 -140.102)" fill="#76e2f8"></path><path id="Trazado_28283" data-name="Trazado 28283" d="M388.389,255.525a5.988,5.988,0,0,1-4.709,2.412H332V246.453h43.756l-6.432-19.064a5.692,5.692,0,0,0-5.4-3.9H332V212h31.927a17.028,17.028,0,0,1,16.307,11.828l8.842,26.529A5.535,5.535,0,0,1,388.389,255.525Zm0,0" transform="translate(-204.906 -130.844)" fill="#e85f24"></path><path id="Trazado_28284" data-name="Trazado 28284" d="M247.742,294.969a5.742,5.742,0,0,1-4.06-9.8l11.484-11.484a5.742,5.742,0,1,1,8.12,8.12L251.8,293.286A5.722,5.722,0,0,1,247.742,294.969Zm0,0" transform="translate(-149.359 -167.875)" fill="#4a696f"></path><path id="Trazado_28285" data-name="Trazado 28285" d="M367.742,294.969a5.742,5.742,0,0,1-4.06-9.8l11.484-11.484a5.742,5.742,0,1,1,8.12,8.12L371.8,293.286A5.722,5.722,0,0,1,367.742,294.969Zm0,0" transform="translate(-223.422 -167.875)" fill="#3e5959"></path><path id="Trazado_28286" data-name="Trazado 28286" d="M272.586,302H169.227A17.2,17.2,0,0,0,152,319.227V353.68a5.686,5.686,0,0,0,5.742,5.742H284.07a5.686,5.686,0,0,0,5.742-5.742V319.227A17.2,17.2,0,0,0,272.586,302Zm0,0" transform="translate(-93.813 -186.391)" fill="#e88129"></path><path id="Trazado_28287" data-name="Trazado 28287" d="M400.906,319.227V353.68a5.686,5.686,0,0,1-5.742,5.742H332V302h51.68A17.2,17.2,0,0,1,400.906,319.227Zm0,0" transform="translate(-204.906 -186.391)" fill="#e85f24"></path><path id="Trazado_28288" data-name="Trazado 28288" d="M71.484,215.742V296.9A5.742,5.742,0,0,1,60,296.9V215.742a5.742,5.742,0,0,1,11.484,0Zm0,0" transform="translate(-37.031 -129.609)" fill="#c6e2e7"></path><path id="Trazado_28289" data-name="Trazado 28289" d="M64.453,427.742v22.969H30V427.742A5.685,5.685,0,0,1,35.742,422H58.711A5.685,5.685,0,0,1,64.453,427.742Zm0,0" transform="translate(-18.516 -260.453)" fill="#4a696f"></path><path id="Trazado_28290" data-name="Trazado 28290" d="M75,302.641V210a5.685,5.685,0,0,1,5.742,5.742V296.9A5.686,5.686,0,0,1,75,302.641Zm0,0" transform="translate(-46.289 -129.609)" fill="#8ebac5"></path><path id="Trazado_28291" data-name="Trazado 28291" d="M92.227,427.742v22.969H75V422H86.484A5.685,5.685,0,0,1,92.227,427.742Zm0,0" transform="translate(-46.289 -260.453)" fill="#3e5959"></path><path id="Trazado_28292" data-name="Trazado 28292" d="M51.68,0H17.227A17.2,17.2,0,0,0,0,17.227V74.648A17.2,17.2,0,0,0,17.227,91.875H51.68A28.722,28.722,0,0,0,80.391,63.164V28.711A28.722,28.722,0,0,0,51.68,0Zm0,0" fill="#636363"></path><path id="Trazado_28293" data-name="Trazado 28293" d="M126.68,28.711V63.164A28.722,28.722,0,0,1,97.969,91.875H75V0H97.969A28.722,28.722,0,0,1,126.68,28.711Zm0,0" transform="translate(-46.289)" fill="#323133"></path><path id="Trazado_28294" data-name="Trazado 28294" d="M77.227,60H65.742A5.685,5.685,0,0,0,60,65.742V100.2a5.742,5.742,0,0,0,11.484,0V94.453h5.742a17.227,17.227,0,0,0,0-34.453Zm0,22.969H71.484V71.484h5.742a5.742,5.742,0,0,1,0,11.484Zm0,0" transform="translate(-37.031 -37.031)" fill="#deecf1"></path><path id="Trazado_28295" data-name="Trazado 28295" d="M86.484,60H75v45.938a5.686,5.686,0,0,0,5.742-5.742V94.453h5.742a17.227,17.227,0,0,0,0-34.453Zm0,22.969H80.742V71.484h5.742a5.742,5.742,0,0,1,0,11.484Zm0,0" transform="translate(-46.289 -37.031)" fill="#c6e2e7"></path><path id="Trazado_28296" data-name="Trazado 28296" d="M229.227,373.484H217.742a5.742,5.742,0,0,1,0-11.484h11.484a5.742,5.742,0,0,1,0,11.484Zm0,0" transform="translate(-130.844 -223.422)" fill="#deecf1"></path><path id="Trazado_28297" data-name="Trazado 28297" d="M409.227,373.484H397.742a5.742,5.742,0,0,1,0-11.484h11.484a5.742,5.742,0,0,1,0,11.484Zm0,0" transform="translate(-241.938 -223.422)" fill="#c6e2e7"></path><path id="Trazado_28298" data-name="Trazado 28298" d="M57.422,487.742a5.686,5.686,0,0,1-5.742,5.742H5.742a5.742,5.742,0,0,1,0-11.484H51.68A5.685,5.685,0,0,1,57.422,487.742Zm0,0" transform="translate(0 -297.484)" fill="#384949"></path><path id="Trazado_28299" data-name="Trazado 28299" d="M103.711,487.742a5.686,5.686,0,0,1-5.742,5.742H75V482H97.969A5.685,5.685,0,0,1,103.711,487.742Zm0,0" transform="translate(-46.289 -297.484)" fill="#293939"></path></g></g></svg>