<svg xmlns="http://www.w3.org/2000/svg" xmlns:xlink="http://www.w3.org/1999/xlink" width="150" height="150" viewBox="0 0 150 150"><defs><clipPath id="clip-path"><rect id="Rect&#xE1;ngulo_4527" data-name="Rect&#xE1;ngulo 4527" width="150" height="150" transform="translate(-11769 7222)" fill="#fff" stroke="#707070" stroke-width="1"></rect></clipPath></defs><g id="Enmascarar_grupo_43" data-name="Enmascarar grupo 43" transform="translate(11769 -7222)" clip-path="url(#clip-path)"><g id="Grupo_14264" data-name="Grupo 14264" transform="translate(-11756 7235)"><path id="Trazado_28375" data-name="Trazado 28375" d="M398.416,246.78v14.566l-5.025,6.118H365.423L362,261.346V246.78l8.667-7.939c-.364-.364,4.152,0,9.541.509,7.21.728,15.95,1.748,15.95,1.748Zm0,0" transform="translate(-274.115 -180.745)" fill="#ff9f00"></path><path id="Trazado_28376" data-name="Trazado 28376" d="M455.208,248.828v14.566l-5.025,6.118H437V241.4c7.21.728,15.95,1.748,15.95,1.748Zm0,0" transform="translate(-330.907 -182.793)" fill="#ff7816"></path><path id="Trazado_28377" data-name="Trazado 28377" d="M155.682,3.642V18.208a3.642,3.642,0,1,1-7.283,0V12.455L110.89,50.133a3.52,3.52,0,0,1-5.1,0L93.775,38.189,67.191,64.7a3.52,3.52,0,0,1-5.1,0,3.52,3.52,0,0,1,0-5.1L91.225,30.468a3.52,3.52,0,0,1,5.1,0l12.017,11.944L143.228,7.283h-5.754a3.606,3.606,0,0,1-3.642-3.642A3.606,3.606,0,0,1,137.474,0h14.566A3.606,3.606,0,0,1,155.682,3.642Zm0,0" transform="translate(-46.191)" fill="#e63950"></path><g id="Grupo_14240" data-name="Grupo 14240" transform="translate(0 90.652)"><path id="Trazado_28378" data-name="Trazado 28378" d="M36.416,395.642v10.925s-13.183,6.846-13.911,6.846c-.291,0-2.185.073-4.3.146-3.058,0-6.628.072-6.628.072L0,406.566V395.642A3.606,3.606,0,0,1,3.642,392H32.775A3.606,3.606,0,0,1,36.416,395.642Zm0,0" transform="translate(0 -387.484)" fill="#ff9f00"></path><path id="Trazado_28379" data-name="Trazado 28379" d="M217.416,379.958v14.566l-5.462,7.72H188.939L181,394.525V379.958l6.409-3.861h23.379Zm0,0" transform="translate(-137.058 -375.442)" fill="#ff9f00"></path><path id="Trazado_28380" data-name="Trazado 28380" d="M398.416,377.914v14.566l-4.079,5.681H369.064L362,392.481V377.914l4.807-4.516H392.3Zm0,0" transform="translate(-274.115 -373.398)" fill="#ff9f00"></path></g><path id="Trazado_28381" data-name="Trazado 28381" d="M303.341,3.642V18.208a3.642,3.642,0,1,1-7.283,0V12.455L258.549,50.133A3.417,3.417,0,0,1,256,51.226V42.413L290.887,7.283h-5.754a3.606,3.606,0,0,1-3.642-3.642A3.606,3.606,0,0,1,285.133,0H299.7A3.606,3.606,0,0,1,303.341,3.642Zm0,0" transform="translate(-193.85)" fill="#cc2e43"></path><path id="Trazado_28382" data-name="Trazado 28382" d="M274.208,379.958v14.566l-5.462,7.72H256V376.1h11.58Zm0,0" transform="translate(-193.85 -284.791)" fill="#ff7816"></path><path id="Trazado_28383" data-name="Trazado 28383" d="M449.09,373.4l6.118,4.516v14.566l-4.079,5.681H437V373.4Zm0,0" transform="translate(-330.907 -282.747)" fill="#ff7816"></path><path id="Trazado_28384" data-name="Trazado 28384" d="M93.208,395.642v10.925s-13.183,6.846-13.911,6.846c-.291,0-2.185.073-4.3.146V392H89.566A3.606,3.606,0,0,1,93.208,395.642Zm0,0" transform="translate(-56.792 -296.832)" fill="#ff7816"></path><path id="Trazado_28385" data-name="Trazado 28385" d="M398.416,452v10.925a3.606,3.606,0,0,1-3.642,3.642H365.642A3.606,3.606,0,0,1,362,462.925V452Zm0,0" transform="translate(-274.115 -342.266)" fill="#ffd400"></path><path id="Trazado_28386" data-name="Trazado 28386" d="M217.416,452v10.925a3.606,3.606,0,0,1-3.642,3.642H184.642A3.606,3.606,0,0,1,181,462.925V452Zm0,0" transform="translate(-137.058 -342.266)" fill="#ffd400"></path><path id="Trazado_28387" data-name="Trazado 28387" d="M36.416,452v10.925a3.606,3.606,0,0,1-3.642,3.642H3.642A3.606,3.606,0,0,1,0,462.925V452Zm0,0" transform="translate(0 -342.266)" fill="#ffd400"></path><path id="Trazado_28388" data-name="Trazado 28388" d="M256,452h18.208v10.925a3.606,3.606,0,0,1-3.642,3.642H256Zm0,0" transform="translate(-193.85 -342.266)" fill="#fdbf00"></path><path id="Trazado_28389" data-name="Trazado 28389" d="M437,452h18.208v10.925a3.606,3.606,0,0,1-3.642,3.642H437Zm0,0" transform="translate(-330.907 -342.266)" fill="#fdbf00"></path><path id="Trazado_28390" data-name="Trazado 28390" d="M93.208,452v10.925a3.606,3.606,0,0,1-3.642,3.642H75V452Zm0,0" transform="translate(-56.792 -342.266)" fill="#fdbf00"></path><path id="Trazado_28391" data-name="Trazado 28391" d="M362,332h36.416v14.566H362Zm0,0" transform="translate(-274.115 -251.399)" fill="#ffd400"></path><path id="Trazado_28392" data-name="Trazado 28392" d="M217.416,335.642v10.925H181V335.642A3.606,3.606,0,0,1,184.642,332h29.133A3.606,3.606,0,0,1,217.416,335.642Zm0,0" transform="translate(-137.058 -251.399)" fill="#ffd400"></path><path id="Trazado_28393" data-name="Trazado 28393" d="M274.208,335.642v10.925H256V332h14.566A3.606,3.606,0,0,1,274.208,335.642Zm0,0" transform="translate(-193.85 -251.399)" fill="#fdbf00"></path><path id="Trazado_28394" data-name="Trazado 28394" d="M437,332h18.208v14.566H437Zm0,0" transform="translate(-330.907 -251.399)" fill="#fdbf00"></path><path id="Trazado_28395" data-name="Trazado 28395" d="M398.416,200.642v14.566H362V200.642A3.606,3.606,0,0,1,365.642,197h29.133A3.606,3.606,0,0,1,398.416,200.642Zm0,0" transform="translate(-274.115 -149.173)" fill="#ffd400"></path><path id="Trazado_28396" data-name="Trazado 28396" d="M455.208,200.642v14.566H437V197h14.566A3.606,3.606,0,0,1,455.208,200.642Zm0,0" transform="translate(-330.907 -149.173)" fill="#fdbf00"></path></g></g></svg>