<svg xmlns="http://www.w3.org/2000/svg" xmlns:xlink="http://www.w3.org/1999/xlink" width="150" height="150" viewBox="0 0 150 150"><defs><clipPath id="clip-path"><rect id="Rect&#xE1;ngulo_4529" data-name="Rect&#xE1;ngulo 4529" width="150" height="150" transform="translate(-10682 7228)" fill="#fff" stroke="#707070" stroke-width="1"></rect></clipPath></defs><g id="Enmascarar_grupo_41" data-name="Enmascarar grupo 41" transform="translate(10682 -7228)" clip-path="url(#clip-path)"><g id="Grupo_14265" data-name="Grupo 14265" transform="translate(-10682.593 7227.046)"><g id="Grupo_14246" data-name="Grupo 14246" transform="translate(50.764 16.954)"><g id="Grupo_14243" data-name="Grupo 14243" transform="translate(0 0)"><path id="Trazado_28409" data-name="Trazado 28409" d="M192.575,125.416c0,10.262-37.165,10.262-37.165,0a18.582,18.582,0,0,1,37.165,0Z" transform="translate(-155.41 -84.709)" fill="#e85f24" fill-rule="evenodd"></path><path id="Trazado_28410" data-name="Trazado 28410" d="M196.011,25.541a8.589,8.589,0,1,0,8.588-8.587A8.588,8.588,0,0,0,196.011,25.541Z" transform="translate(-186.016 -16.954)" fill="#e85f24" fill-rule="evenodd"></path></g><g id="Grupo_14244" data-name="Grupo 14244" transform="translate(46.531 0)"><path id="Trazado_28411" data-name="Trazado 28411" d="M381.6,125.416c0,10.262-37.165,10.262-37.165,0a18.582,18.582,0,0,1,37.165,0Z" transform="translate(-344.433 -84.709)" fill="#323133" fill-rule="evenodd"></path><path id="Trazado_28412" data-name="Trazado 28412" d="M385.033,25.541a8.589,8.589,0,1,0,8.588-8.587A8.588,8.588,0,0,0,385.033,25.541Z" transform="translate(-375.039 -16.954)" fill="#323133" fill-rule="evenodd"></path></g><g id="Grupo_14245" data-name="Grupo 14245" transform="translate(23.266 6.432)"><path id="Trazado_28413" data-name="Trazado 28413" d="M290.522,51.668a8.588,8.588,0,1,0,8.588-8.587A8.588,8.588,0,0,0,290.522,51.668Z" transform="translate(-280.528 -43.081)" fill="#e88129" fill-rule="evenodd"></path><path id="Trazado_28414" data-name="Trazado 28414" d="M287.087,151.542c0,10.262-37.165,10.262-37.165,0a18.582,18.582,0,0,1,37.165,0Z" transform="translate(-249.922 -110.835)" fill="#e88129" fill-rule="evenodd"></path></g></g><g id="Grupo_14248" data-name="Grupo 14248" transform="translate(16.593 85.148)"><g id="Grupo_14247" data-name="Grupo 14247" transform="translate(8.248 0)"><path id="Trazado_28415" data-name="Trazado 28415" d="M73.849,297.773c-7.876,3.858-15.825,7.565-23.75,11.319l11.185,26.8,16.452-8.014a9.9,9.9,0,0,1,7.35-.632L102.54,332.3c5.531,1.6,12.379-1.341,17.525-3.329l32.741-12.645c8.622-3.33,10.7-20.633-9.664-14.655l-23.359,6.857a7.442,7.442,0,0,0-5.241-5.22l-15.826-4.228C87.931,291.446,82.443,293.562,73.849,297.773Z" transform="translate(-50.099 -293.98)" fill="#efc7a4" fill-rule="evenodd"></path><path id="Trazado_28416" data-name="Trazado 28416" d="M224.136,339.872l-35.38-9.452a7.448,7.448,0,0,0,5.258,9.091l21.032,5.619a7.448,7.448,0,0,0,9.091-5.257Z" transform="translate(-154.434 -321.45)" fill="#d5a889" fill-rule="evenodd"></path></g><path id="Trazado_28417" data-name="Trazado 28417" d="M43.956,354.183l-8.409,3.436a3.587,3.587,0,0,1-4.668-1.957L16.865,321.47a3.564,3.564,0,0,1,1.959-4.672l8.409-3.436a3.587,3.587,0,0,1,4.668,1.957L45.914,349.51A3.564,3.564,0,0,1,43.956,354.183Z" transform="translate(-16.593 -308.39)" fill="#323133" fill-rule="evenodd"></path></g></g></g></svg>