<svg xmlns="http://www.w3.org/2000/svg" xmlns:xlink="http://www.w3.org/1999/xlink" width="200" height="200" viewBox="0 0 200 200"><defs><clipPath id="clip-path"><rect id="Rect&#xE1;ngulo_4523" data-name="Rect&#xE1;ngulo 4523" width="200" height="200" transform="translate(-11500 5995)" fill="#fff" stroke="#707070" stroke-width="1"></rect></clipPath><linearGradient id="linear-gradient" x1="0.5" x2="0.5" y2="1" gradientUnits="objectBoundingBox"><stop offset="0" stop-color="#e85f24"></stop><stop offset="1" stop-color="#e88129"></stop></linearGradient></defs><g id="Enmascarar_grupo_37" data-name="Enmascarar grupo 37" transform="translate(11500 -5995)" clip-path="url(#clip-path)"><g id="Grupo_14261" data-name="Grupo 14261" transform="translate(-11497 5998)"><path id="Trazado_28300" data-name="Trazado 28300" d="M383.031,331.419A6.03,6.03,0,0,1,377,325.388V216.031a6.031,6.031,0,1,1,12.061,0V325.388A6.03,6.03,0,0,1,383.031,331.419Zm0,0" transform="translate(-233.913 -136.419)" fill="#7b8396"></path><path id="Trazado_28301" data-name="Trazado 28301" d="M398.031,325.388V216.031A6.03,6.03,0,0,0,392,210V331.419A6.03,6.03,0,0,0,398.031,325.388Zm0,0" transform="translate(-242.954 -136.419)" fill="#69737d"></path><path id="Trazado_28302" data-name="Trazado 28302" d="M320.246,96.492a48.246,48.246,0,1,1,48.246-48.246A48.3,48.3,0,0,1,320.246,96.492Zm0,0" transform="translate(-173.492)" fill="#e6f0f5"></path><path id="Trazado_28303" data-name="Trazado 28303" d="M392,0a48.246,48.246,0,1,1,0,96.492Zm0,0" transform="translate(-245.246)" fill="#c8dce6"></path><path id="Trazado_28304" data-name="Trazado 28304" d="M338.184,102.369a36.184,36.184,0,1,1,36.184-36.184A36.226,36.226,0,0,1,338.184,102.369Zm0,0" transform="translate(-191.43 -17.939)" fill="#e88129"></path><path id="Trazado_28305" data-name="Trazado 28305" d="M392,30a36.184,36.184,0,0,1,0,72.369Zm0,0" transform="translate(-245.246 -17.939)" fill="url(#linear-gradient)"></path><path id="Trazado_28306" data-name="Trazado 28306" d="M177.573,280.246H71.031a6.03,6.03,0,0,1-5.511-8.481L76.3,247.52A26.154,26.154,0,0,1,100.176,232h48.252a26.153,26.153,0,0,1,23.879,15.52l10.777,24.247a6.029,6.029,0,0,1-5.511,8.479Zm0,0" transform="translate(-38.867 -145.145)" fill="#e88129"></path><path id="Trazado_28307" data-name="Trazado 28307" d="M272.777,271.765,262,247.52A26.154,26.154,0,0,0,238.121,232H215v48.246h52.266a6.03,6.03,0,0,0,5.511-8.481Zm0,0" transform="translate(-134.915 -145.145)" fill="#e85f24"></path><path id="Trazado_28308" data-name="Trazado 28308" d="M160.392,382.307H5.661A5.854,5.854,0,0,1,0,376.276V348.133C0,333.724,11,322,24.53,322H130.2c19.769,0,35.852,17.134,35.852,38.195v16.082A5.854,5.854,0,0,1,160.392,382.307Zm0,0" transform="translate(0 -203.389)" fill="#e88129"></path><path id="Trazado_28309" data-name="Trazado 28309" d="M267.266,322H215v60.307h84.43a6.03,6.03,0,0,0,6.031-6.031V360.195A38.238,38.238,0,0,0,267.266,322Zm0,0" transform="translate(-139.408 -203.389)" fill="#e85f24"></path><path id="Trazado_28310" data-name="Trazado 28310" d="M389.765,384.061H376.031a6.031,6.031,0,1,1,0-12.061h13.734a6.031,6.031,0,0,1,0,12.061Zm0,0" transform="translate(-230.205 -230.811)" fill="#fac30f"></path><path id="Trazado_28311" data-name="Trazado 28311" d="M291.113,446.225a22.113,22.113,0,1,1,22.113-22.113A22.137,22.137,0,0,1,291.113,446.225Zm0,0" transform="translate(-168.108 -251.225)" fill="#444d55"></path><path id="Trazado_28312" data-name="Trazado 28312" d="M76.113,446.225a22.113,22.113,0,1,1,22.113-22.113A22.137,22.137,0,0,1,76.113,446.225Zm0,0" transform="translate(-32.289 -251.225)" fill="#545c64"></path><path id="Trazado_28313" data-name="Trazado 28313" d="M230,286.123h36.955l-7.008-15.766A14.083,14.083,0,0,0,247.09,262H230Zm0,0" transform="translate(-143.469 -162.952)" fill="#37c8d2"></path><path id="Trazado_28314" data-name="Trazado 28314" d="M142.048,262h-19.1a14.083,14.083,0,0,0-12.858,8.357l-7.008,15.766h38.966Zm0,0" transform="translate(-64.332 -162.952)" fill="#44e9ef"></path><path id="Trazado_28315" data-name="Trazado 28315" d="M375.092,60H363.031A6.03,6.03,0,0,0,357,66.031v36.184a6.031,6.031,0,0,0,12.061,0V96.184h6.031a18.092,18.092,0,0,0,0-36.184Zm0,24.123h-6.031V72.061h6.031a6.031,6.031,0,1,1,0,12.061Zm0,0" transform="translate(-224.317 -35.877)" fill="#e6f0f5"></path><path id="Trazado_28316" data-name="Trazado 28316" d="M414.113,78.092A18.113,18.113,0,0,0,396.02,60H392V72.061h4.02a6.031,6.031,0,1,1,0,12.061H392V96.184h4.02A18.113,18.113,0,0,0,414.113,78.092Zm0,0" transform="translate(-245.246 -35.877)" fill="#c8dce6"></path><path id="Trazado_28317" data-name="Trazado 28317" d="M309.051,452.1A10.051,10.051,0,1,1,319.1,442.051,10.063,10.063,0,0,1,309.051,452.1Zm0,0" transform="translate(-185.809 -269.164)" fill="#c8dce6"></path><path id="Trazado_28318" data-name="Trazado 28318" d="M94.051,452.1A10.051,10.051,0,1,1,104.1,442.051,10.063,10.063,0,0,1,94.051,452.1Zm0,0" transform="translate(-52.2 -269.164)" fill="#e6f0f5"></path></g></g></svg>