<svg xmlns="http://www.w3.org/2000/svg" xmlns:xlink="http://www.w3.org/1999/xlink" width="20.164" height="25.937" viewBox="0 0 20.164 25.937"><defs><linearGradient id="linear-gradient" x1="1.166" y1="0.12" x2="-0.155" y2="0.84" gradientUnits="objectBoundingBox"><stop offset="0" stop-color="#e44012"></stop><stop offset="0.528" stop-color="#eb5f0f"></stop></linearGradient><linearGradient id="linear-gradient-2" x1="0.044" y1="0.716" x2="0.736" y2="0.209" gradientUnits="objectBoundingBox"><stop offset="0" stop-color="#e44212"></stop><stop offset="1" stop-color="#eb5f0f"></stop></linearGradient></defs><g id="Grupo_14219" data-name="Grupo 14219" transform="translate(0.125 0.125)"><path id="Trazado_6243" data-name="Trazado 6243" d="M497.836,464.648c.078,0,.153,0,.231-.008-.093.015-.187.03-.28.037v-.03Z" transform="translate(-487.828 -449.869)" fill="none" stroke="#212121" stroke-miterlimit="10" stroke-width="0.25"></path><path id="Trazado_6244" data-name="Trazado 6244" d="M493.97,463.67v7.406c-.306-.758-.594-1.527-.855-2.307a37.043,37.043,0,0,1-1.3-5.036c-.041-.216-.078-.433-.116-.653A4.82,4.82,0,0,0,493.97,463.67Z" transform="translate(-484.011 -448.892)" fill="#e74e10" stroke="#fff" stroke-miterlimit="10" stroke-width="0.25"></path><path id="Trazado_6245" data-name="Trazado 6245" d="M507.742,446.626a9.937,9.937,0,0,1-.78,3.878.032.032,0,0,1-.011.022q-.5.963-1.068,1.893c-1.937,3.221-4.031,6.652-6.8,9.157-.351-.72-.986-1.975-1.292-2.721v-7.376c.093-.007.187-.022.28-.037a.017.017,0,0,0,.019,0,4.772,4.772,0,0,0,1.482-.314,11.2,11.2,0,0,0,7.592-7.219,3.328,3.328,0,0,0,.1-.328c.063.183.116.37.164.56v0A9.875,9.875,0,0,1,507.742,446.626Z" transform="translate(-487.828 -436.671)" stroke="#fff" stroke-miterlimit="10" stroke-width="0.25" fill="url(#linear-gradient)"></path><path id="Trazado_6246" data-name="Trazado 6246" d="M481.066,425.07v4.9a11.209,11.209,0,0,0-8.388,7.417,10.431,10.431,0,0,0-.485,2.109c-.108-.213-.217-.429-.321-.642a9.873,9.873,0,0,1-.732-3.009c-.022-.269-.034-.545-.034-.821a9.95,9.95,0,0,1,5.7-9,9.656,9.656,0,0,1,2.2-.743A9.884,9.884,0,0,1,481.066,425.07Z" transform="translate(-471.107 -425.07)" stroke="#fff" stroke-miterlimit="10" stroke-width="0.25" fill="url(#linear-gradient-2)"></path><path id="Trazado_6247" data-name="Trazado 6247" d="M478.086,443.224c0,.082,0,.168.007.25a37.951,37.951,0,0,0,4.143,15.069,38.224,38.224,0,0,1-7.843-10.094c-.131-.239-.254-.482-.377-.724a10.44,10.44,0,0,1,.485-2.109,11.209,11.209,0,0,1,8.388-7.417v.172a4.85,4.85,0,0,0-4.8,4.853Z" transform="translate(-472.931 -433.299)" fill="#e74e10" stroke="#fff" stroke-miterlimit="10" stroke-width="0.25"></path><path id="Trazado_6248" data-name="Trazado 6248" d="M507.265,431.979a3.328,3.328,0,0,1-.1.328,11.2,11.2,0,0,1-7.592,7.219,4.852,4.852,0,0,0-1.732-9.384h-.049V425.07A9.954,9.954,0,0,1,507.265,431.979Z" transform="translate(-487.828 -425.07)" fill="#e74e10" stroke="#fff" stroke-miterlimit="10" stroke-width="0.25"></path></g></svg>