<svg xmlns="http://www.w3.org/2000/svg" width="176.75" height="45.533" viewBox="0 0 176.75 45.533"><g id="Grupo_9360" data-name="Grupo 9360" transform="translate(-471.107 -425.07)"><g id="Grupo_9358" data-name="Grupo 9358" transform="translate(471.107 425.07)"><path id="Trazado_6243" data-name="Trazado 6243" d="M497.874,464.653c.141,0,.276,0,.417-.013-.168.027-.337.054-.5.067v-.054Z" transform="translate(-479.824 -437.999)" fill="#fff"></path><path id="Trazado_6244" data-name="Trazado 6244" d="M495.8,464.144V477.5c-.552-1.367-1.07-2.754-1.542-4.161a66.781,66.781,0,0,1-2.35-9.082c-.074-.39-.141-.781-.209-1.178A8.7,8.7,0,0,0,495.8,464.144Z" transform="translate(-477.834 -437.489)" fill="#fff"></path><path id="Trazado_6245" data-name="Trazado 6245" d="M515.743,449.074a17.925,17.925,0,0,1-1.407,7,.058.058,0,0,1-.02.04q-.909,1.737-1.926,3.414c-3.494,5.81-7.271,12-12.274,16.515-.633-1.3-1.777-3.562-2.33-4.908v-13.3c.168-.014.337-.04.5-.067a.03.03,0,0,0,.034,0,8.605,8.605,0,0,0,2.673-.566,20.2,20.2,0,0,0,13.694-13.021,6.072,6.072,0,0,0,.189-.593c.114.33.209.667.3,1.01v.007A17.816,17.816,0,0,1,515.743,449.074Z" transform="translate(-479.824 -431.118)" fill="#fff"></path><path id="Trazado_6246" data-name="Trazado 6246" d="M489.07,425.07v8.84a20.217,20.217,0,0,0-15.128,13.378,18.818,18.818,0,0,0-.875,3.8c-.2-.384-.391-.774-.579-1.158a17.808,17.808,0,0,1-1.32-5.427c-.04-.485-.061-.983-.061-1.481A17.947,17.947,0,0,1,481.381,426.8a17.411,17.411,0,0,1,3.966-1.34A17.817,17.817,0,0,1,489.07,425.07Z" transform="translate(-471.107 -425.07)" fill="#fff"></path><path id="Trazado_6247" data-name="Trazado 6247" d="M481.356,447.262c0,.148.007.3.014.451a68.451,68.451,0,0,0,7.473,27.18A68.944,68.944,0,0,1,474.7,456.688c-.236-.431-.458-.869-.68-1.306a18.829,18.829,0,0,1,.875-3.8A20.217,20.217,0,0,1,490.021,438.2v.31a8.747,8.747,0,0,0-8.665,8.752Z" transform="translate(-472.058 -429.36)" fill="#fff"></path><path id="Trazado_6248" data-name="Trazado 6248" d="M514.881,437.532a6.06,6.06,0,0,1-.189.592A20.2,20.2,0,0,1,501,451.146a8.751,8.751,0,0,0-3.124-16.926h-.087v-9.15A17.953,17.953,0,0,1,514.881,437.532Z" transform="translate(-479.824 -425.07)" fill="#fff"></path></g><g id="Grupo_9359" data-name="Grupo 9359" transform="translate(514.419 436.359)"><path id="Trazado_6249" data-name="Trazado 6249" d="M626.155,451.711a22.813,22.813,0,0,0-6.214,1.089v21.215a1.255,1.255,0,1,0,2.51,0v-5.829a12.152,12.152,0,0,0,4.115.7,5.46,5.46,0,0,0,4.814-2.115q1.482-2.116,1.482-6.891,0-4.167-1.543-6.17T626.155,451.711Zm3.271,13.959a3.278,3.278,0,0,1-3.271,1.747,7.4,7.4,0,0,1-1.05-.079q-.556-.08-.906-.16t-.946-.256a8.02,8.02,0,0,0-.8-.209V453.826a9.481,9.481,0,0,1,3.745-.642,3.4,3.4,0,0,1,3.065,1.571,9.86,9.86,0,0,1,1.008,5.13A14.339,14.339,0,0,1,629.426,465.67Z" transform="translate(-563.047 -445.064)" fill="#fff" stroke="#fff" stroke-width="1.5"></path><path id="Trazado_6250" data-name="Trazado 6250" d="M656.862,452.282h-.041a1.255,1.255,0,0,0-1.255,1.255v13.426a8.617,8.617,0,0,1-3.58.641,3.194,3.194,0,0,1-2.942-1.282,7.915,7.915,0,0,1-.8-4.071v-8.714a1.255,1.255,0,1,0-2.51,0v10.188q0,5.355,6.131,5.353a19.517,19.517,0,0,0,3.786-.4,13.81,13.81,0,0,0,2.469-.625V453.537A1.255,1.255,0,0,0,656.862,452.282Z" transform="translate(-571.474 -445.25)" fill="#fff" stroke="#fff" stroke-width="1.5"></path><path id="Trazado_6251" data-name="Trazado 6251" d="M682.856,453.057a7.2,7.2,0,0,0-4.609-1.346,17.361,17.361,0,0,0-2.88.257q-1.523.256-2.387.5a6.521,6.521,0,0,0-1.029.337v14.452a1.255,1.255,0,0,0,2.51,0V453.858a8.873,8.873,0,0,1,3.662-.641q3.91,0,3.91,5.065v8.97a1.255,1.255,0,0,0,1.255,1.255h0a1.255,1.255,0,0,0,1.255-1.255V457.064A4.819,4.819,0,0,0,682.856,453.057Z" transform="translate(-580.04 -445.064)" fill="#fff" stroke="#fff" stroke-width="1.5"></path><path id="Trazado_6252" data-name="Trazado 6252" d="M705.23,448.87h-4v-5.777a1.255,1.255,0,1,0-2.51,0v18.662a4.277,4.277,0,0,0,.884,2.885q.885,1.026,3.683,1.025a6.639,6.639,0,0,0,2.263-.384v-1.571a3.608,3.608,0,0,1-.885.289,5.2,5.2,0,0,1-1.05.192q-2.386,0-2.386-2.756V450.376h4a.753.753,0,0,0,0-1.507Z" transform="translate(-588.786 -441.838)" fill="#fff" stroke="#fff" stroke-width="1.5"></path><path id="Trazado_6253" data-name="Trazado 6253" d="M724.668,453.634q-1.441-1.923-5.185-1.923-3.54,0-5.062,1.891t-1.522,6.283q0,5.1,1.3,7.051t5.288,1.955a8,8,0,0,0,3.806-.753,4.8,4.8,0,0,0,2.1-2.74,16.758,16.758,0,0,0,.72-5.513Q726.108,455.557,724.668,453.634Zm-2.037,12.085a3.862,3.862,0,0,1-6.3.143q-.8-1.554-.8-5.977a11.688,11.688,0,0,1,.823-5.193,3.981,3.981,0,0,1,6.276.048,11.481,11.481,0,0,1,.844,5.145A14.293,14.293,0,0,1,722.631,465.719Z" transform="translate(-593.419 -445.064)" fill="#fff" stroke="#fff" stroke-width="1.5"></path><path id="Trazado_6254" data-name="Trazado 6254" d="M541.36,451.711a5.138,5.138,0,0,0-4.5,2q-1.424,2-1.424,6.17,0,4.841,1.328,6.923t4.936,2.083a9.644,9.644,0,0,0,4.86-1.058V466.1a6.215,6.215,0,0,1-1.708.85,7.7,7.7,0,0,1-2.7.464,3.555,3.555,0,0,1-3.322-1.7,10.382,10.382,0,0,1-1.006-5.161h9.263v-.673a10.741,10.741,0,0,0-1.442-6.027A4.83,4.83,0,0,0,541.36,451.711Zm-3.531,7.5a10.281,10.281,0,0,1,.778-4.568,3.015,3.015,0,0,1,5.315.208,9.355,9.355,0,0,1,.892,4.36Z" transform="translate(-535.437 -445.064)" fill="#fff"></path><path id="Trazado_6255" data-name="Trazado 6255" d="M563.375,451.711a21.636,21.636,0,0,0-5.087.994v1.634a6.78,6.78,0,0,1,1.841-.705,10.272,10.272,0,0,1,2.866-.449q3.417,0,3.417,3.815v1.507h-2.505a9.119,9.119,0,0,0-5.012,1.267,4.4,4.4,0,0,0-1.974,3.991,5.21,5.21,0,0,0,1.348,3.654,5.363,5.363,0,0,0,4.157,1.474,15.581,15.581,0,0,0,6.265-1.025V457q0-2.884-1.367-4.087A5.8,5.8,0,0,0,563.375,451.711Zm3.037,15.225a11.322,11.322,0,0,1-3.644.578,3.175,3.175,0,0,1-2.62-1.075,4.1,4.1,0,0,1-.873-2.676,3.293,3.293,0,0,1,1.367-3,7.577,7.577,0,0,1,4.063-.881h1.708Z" transform="translate(-542.456 -445.064)" fill="#fff"></path><path id="Trazado_6256" data-name="Trazado 6256" d="M588.32,461.359a13.122,13.122,0,0,0-1.234-.962q-.569-.385-1.575-.961t-1.5-.93q-1.937-1.281-1.936-2.789a2.471,2.471,0,0,1,.721-1.795,3.014,3.014,0,0,1,2.24-.738,8.873,8.873,0,0,1,3.949,1.122v-1.6a8.175,8.175,0,0,0-4.29-.994,5.494,5.494,0,0,0-3.569,1.106,3.651,3.651,0,0,0-1.366,3,4.375,4.375,0,0,0,.284,1.619,3.7,3.7,0,0,0,.93,1.33,10.293,10.293,0,0,0,1.177.978q.531.369,1.575.961t1.538.946a3.57,3.57,0,0,1,1.9,2.981,2.556,2.556,0,0,1-.854,2.068,3.629,3.629,0,0,1-2.411.721,8.7,8.7,0,0,1-4.1-1.25v1.666a7.694,7.694,0,0,0,4.518,1.058,5.834,5.834,0,0,0,3.854-1.186,4.25,4.25,0,0,0,1.423-3.462,4.042,4.042,0,0,0-.3-1.586A3.534,3.534,0,0,0,588.32,461.359Z" transform="translate(-549.918 -445.064)" fill="#fff"></path><path id="Trazado_6257" data-name="Trazado 6257" d="M603.36,466l-3.945-13.721h-2.471l5.2,16.414-1.124,4.654a2.349,2.349,0,0,1-1.21,1.409l-2.412.544c-.488.123-1.029.539-.934,1.032.1.527.513.656,1.044.678l1.89-.349a4.018,4.018,0,0,0,2.906-2.645l7.24-21.737h-2.39Z" transform="translate(-555.374 -445.25)" fill="#fff"></path></g></g></svg>